<?xml version="1.0" encoding="UTF-8"?>
<svg version="1.1" xmlns="http://www.w3.org/2000/svg" width="2000" height="2092">
<path d="M0 0 C1.39412109 1.11955078 1.39412109 1.11955078 2.81640625 2.26171875 C7.89297774 6.37765808 12.89833435 10.57667261 17.875 14.8125 C18.39126953 15.24941162 18.90753906 15.68632324 19.43945312 16.13647461 C30.27216894 25.4120694 40.49730917 35.33155722 50.55908203 45.42871094 C52.39110995 47.2661576 54.22850605 49.0981165 56.06640625 50.9296875 C61.92369478 56.7833229 67.66844875 62.65628991 73 69 C73.960782 70.1067358 74.92299289 71.21223297 75.88671875 72.31640625 C106.01168195 107.14341397 131.53764772 145.28249132 153 186 C153.48968262 186.92731934 153.97936523 187.85463867 154.48388672 188.81005859 C193.63229956 263.53150994 213.95603892 347.82011534 191.125 623.5 C183.68806688 647.25353005 174.41319051 670.40761656 164 693 C163.58540527 693.9075 163.17081055 694.815 162.74365234 695.75 C147.29546041 729.45069298 127.93803608 761.14479284 106 791 C105.53384277 791.63744141 105.06768555 792.27488281 104.58740234 792.93164062 C98.52347998 801.20335021 92.26854559 809.22889112 85.5703125 816.99609375 C83.21652665 819.74694682 80.94585614 822.54580476 78.6875 825.375 C73.4004324 831.86410073 67.65508998 837.90288468 61.90429688 843.97802734 C59.9395991 846.06413336 57.99152781 848.16473618 56.046875 850.26953125 C55.39154785 850.97634033 54.7362207 851.68314941 54.06103516 852.41137695 C52.81315083 853.75761282 51.56783125 855.10623287 50.32568359 856.45776367 C46.68241573 860.37212309 42.87010065 863.94238923 38.81201172 867.42382812 C36.59865394 869.34910943 34.54216687 871.39499723 32.5 873.5 C28.49213068 877.54869651 24.32994587 881.30210999 20 885 C18.99407683 885.88069461 17.98893081 886.76227731 16.984375 887.64453125 C8.6740196 894.90637251 0.07573107 901.70788541 -8.75830078 908.3203125 C-11.01030231 910.00771944 -13.25309337 911.70690442 -15.49609375 913.40625 C-92.28311546 971.1843195 -184.42502938 1008.4928816 -282 1021.6875 C-282.75504822 1021.79050415 -283.51009644 1021.8935083 -284.2880249 1021.99963379 C-308.96216258 1025.32934076 -333.55733425 1026.3815303 -358.4375 1026.3125 C-359.85896803 1026.31027582 -361.28043613 1026.3080994 -362.7019043 1026.30596924 C-383.93399716 1026.26192593 -404.92448817 1025.76950147 -426 1023 C-427.57405441 1022.799304 -429.14811047 1022.59862096 -430.72216797 1022.39794922 C-513.68240755 1011.66362202 -593.14907623 983.94435656 -727 894 C-727.53157715 893.55333984 -728.0631543 893.10667969 -728.61083984 892.64648438 C-736.65720009 885.86818831 -744.50016528 878.90232397 -752.17529297 871.70703125 C-754.22680785 869.78781904 -756.28731795 867.87848535 -758.34765625 865.96875 C-759.85709965 864.56285296 -761.36621724 863.15660601 -762.875 861.75 C-763.57665283 861.10063477 -764.27830566 860.45126953 -765.0012207 859.78222656 C-769.06937817 855.97283313 -772.82020318 852.02213396 -776.44580078 847.79003906 C-778.36229231 845.58273214 -780.40244871 843.53493782 -782.5 841.5 C-786.54820141 837.49268951 -790.31306302 833.33889535 -794 829 C-794.79921875 828.07832031 -795.5984375 827.15664063 -796.421875 826.20703125 C-803.42052799 818.09375407 -809.9597996 809.66954732 -816.40332031 801.11132812 C-817.89999486 799.13223921 -819.41181633 797.16597803 -820.9296875 795.203125 C-838.29587509 772.61265103 -853.21876425 748.23934748 -866.79541016 723.21679688 C-867.58993608 721.75463729 -868.38899757 720.29493196 -869.19287109 718.83789062 C-882.38194941 694.90874895 -892.78334794 669.68804896 -902 644 C-902.3913916 642.91638184 -902.7827832 641.83276367 -903.18603516 640.71630859 C-913.94612184 610.62749355 -921.67001253 579.48872146 -927 548 C-927.19287598 546.86626953 -927.38575195 545.73253906 -927.58447266 544.56445312 C-940.60272901 466.43221532 -936.84232028 385.95491961 -872 188 C-871.50902832 187.02224609 -871.01805664 186.04449219 -870.51220703 185.03710938 C-855.58744966 155.46579169 -837.45298396 127.07003507 -817 101 C-816.07224214 99.79869771 -815.14516702 98.59686786 -814.21875 97.39453125 C-805.98351093 86.7563264 -797.35260783 76.46607125 -788.28833008 66.52368164 C-786.88700868 64.97823629 -785.49408815 63.42505547 -784.1159668 61.85888672 C-777.8055098 54.71165394 -771.1212995 47.96861693 -764.37036133 41.23999023 C-762.43389451 39.30890453 -760.50286044 37.37250118 -758.57226562 35.43554688 C-752.55240021 29.41205236 -746.53300367 23.47243288 -740 18 C-738.83472894 16.99228124 -737.67065472 15.98317676 -736.5078125 14.97265625 C-710.51641684 -7.43045974 -682.72780473 -27.83249933 -653 -45 C-651.29807575 -45.99461829 -649.5962541 -46.98941216 -647.89453125 -47.984375 C-575.95381045 -89.80974508 -496.6640295 -114.61728691 -414 -123 C-412.86933105 -123.11859375 -411.73866211 -123.2371875 -410.57373047 -123.359375 C-323.95535306 -132.06395846 -236.69955411 -118.02416736 0 0 Z M-424 -83 C-425.09112091 -82.85434601 -425.09112091 -82.85434601 -426.20428467 -82.70574951 C-513.29155393 -71.04679656 -595.2587159 -39.52188439 -697.25146484 33.55566406 C-699.73089102 35.60373517 -702.24372046 37.60993691 -704.75 39.625 C-710.11778535 44.01901919 -715.19318128 48.68752737 -720.26879883 53.41235352 C-722.39257886 55.36002543 -724.54993333 57.26849234 -726.703125 59.18359375 C-732.21154059 64.13390156 -737.46310603 69.31530868 -742.6875 74.5625 C-743.58533203 75.45646484 -744.48316406 76.35042969 -745.40820312 77.27148438 C-749.9491949 81.81912962 -754.3551126 86.42188412 -758.5402832 91.29956055 C-760.39187406 93.45649821 -762.32138597 95.53693363 -764.25 97.625 C-769.33108696 103.25725571 -773.95942043 109.20249936 -778.59716797 115.19873047 C-779.95881777 116.94712104 -781.33690058 118.68083304 -782.72265625 120.41015625 C-806.02362358 149.54475913 -825.29714049 181.69852057 -842 215 C-842.40025391 215.79647949 -842.80050781 216.59295898 -843.21289062 217.41357422 C-878.97211509 289.19092725 -896.28408102 370.36735554 -896.1875 450.3125 C-896.18656342 451.3222287 -896.18562683 452.3319574 -896.18466187 453.37228394 C-896.01588064 537.72714401 -875.58230503 620.36869101 -772 794 C-771.49227051 794.60682617 -770.98454102 795.21365234 -770.46142578 795.83886719 C-768.959464 797.6269399 -767.4505984 799.40884456 -765.9375 801.1875 C-765.51581543 801.68483643 -765.09413086 802.18217285 -764.65966797 802.69458008 C-755.56876843 813.27372344 -745.87538342 823.29102444 -735.99853516 833.13183594 C-734.23351456 834.8914348 -732.47398867 836.65640397 -730.71484375 838.421875 C-724.97899551 844.16144609 -719.20844 849.76704691 -713 855 C-711.86976787 855.98415648 -710.74083413 856.96980628 -709.61328125 857.95703125 C-701.95373953 864.60225388 -694.1227621 870.92912561 -686 877 C-685.29746094 877.52851562 -684.59492187 878.05703125 -683.87109375 878.6015625 C-642.78362291 909.47002258 -597.96455335 934.51780508 -550 953 C-548.34822754 953.63784424 -548.34822754 953.63784424 -546.66308594 954.28857422 C-498.00434515 972.86230254 -445.95948318 983.69627501 -394 987 C-393.16001465 987.05639648 -392.3200293 987.11279297 -391.45458984 987.17089844 C-307.91016322 992.60651272 -222.19399994 977.51241752 -126 935 C-125.06865234 934.56333008 -124.13730469 934.12666016 -123.17773438 933.67675781 C-108.97545667 926.94908231 -95.46341141 919.08830214 -82 911 C-81.06945801 910.44376953 -80.13891602 909.88753906 -79.18017578 909.31445312 C-66.65452534 901.80218925 -54.70256827 893.73484657 -43 885 C-41.90270134 884.18961975 -40.80507494 883.37968298 -39.70703125 882.5703125 C-36.7869573 880.40243725 -33.88838195 878.20990297 -31 876 C-30.46487793 875.59104492 -29.92975586 875.18208984 -29.37841797 874.76074219 C-22.57429569 869.54248419 -15.9250296 864.1703216 -9.4375 858.5625 C-8.88537842 858.08586914 -8.33325684 857.60923828 -7.7644043 857.11816406 C2.90948095 847.79932908 13.13346713 838.03351771 23.13183594 827.99853516 C24.8914348 826.23351456 26.65640397 824.47398867 28.421875 822.71484375 C34.16168512 816.97870623 39.76342712 811.20571909 45 805 C45.94869808 803.91637025 46.8991728 802.83429291 47.8515625 801.75390625 C55.65365899 792.80919093 62.89047435 783.50050249 70 774 C70.58072266 773.22962402 71.16144531 772.45924805 71.75976562 771.66552734 C79.99504469 760.73240685 87.79494965 749.63856735 95 738 C95.84449707 736.64358398 95.84449707 736.64358398 96.70605469 735.25976562 C106.63341136 719.24583508 115.57352787 702.84763122 124 686 C124.45181641 685.10958008 124.90363281 684.21916016 125.36914062 683.30175781 C153.82349306 627.07053752 169.5802932 564.46374714 176 502 C176.11859375 500.84628906 176.2371875 499.69257812 176.359375 498.50390625 C179.54670692 465.68197635 179.34680421 431.79591916 176 399 C175.87641113 397.76701172 175.75282227 396.53402344 175.62548828 395.26367188 C169.07140796 332.24916869 151.14015636 272.1425132 124 215 C123.60522461 214.15985352 123.21044922 213.31970703 122.80371094 212.45410156 C109.76341702 184.84130674 93.10360143 158.55548962 75 134 C74.53239258 133.3611084 74.06478516 132.7222168 73.58300781 132.06396484 C67.52888489 123.80489602 61.28497766 115.79070108 54.59765625 108.03515625 C52.09166517 105.10710351 49.66491319 102.12831844 47.25 99.125 C44.26279493 95.45211975 41.17922973 92.04551374 37.7668457 88.76782227 C36.07026832 87.07030715 34.52336398 85.31505468 32.97265625 83.484375 C28.70119755 78.57073158 24.12345357 73.97279847 19.51196289 69.3815918 C18.06475615 67.93974779 16.62297974 66.49262884 15.18164062 65.04492188 C9.95679144 59.81637966 4.61312022 54.80809672 -1 50 C-2.5448126 48.5867645 -4.08695325 47.17059591 -5.625 45.75 C-10.66553826 41.20197235 -15.94878466 37.03307905 -21.3125 32.87890625 C-23.75781307 30.98223768 -26.17151105 29.05452725 -28.5625 27.08984375 C-37.60925735 19.67255795 -47.0361102 12.99439811 -56.76318359 6.49902344 C-58.77496822 5.15080715 -60.7745304 3.78693174 -62.76953125 2.4140625 C-72.67477334 -4.36327989 -82.96609594 -10.46219783 -93.35302734 -16.46875 C-95.00181263 -17.42255754 -96.64838387 -18.38021573 -98.29150391 -19.34375 C-156.85432893 -53.64272782 -224.85685462 -74.31022057 -292.02410889 -82.75 C-293.93124831 -82.99130118 -295.83699977 -83.24349534 -297.74267578 -83.49609375 C-338.72856282 -88.73363021 -383.0686332 -88.60056618 -424 -83 Z " fill="#89939E" transform="translate(1359,128)"/>
<path d="M0 0 C12.27912256 5.8989689 24.09919191 12.49936141 35.92626953 19.25146484 C41.06137908 22.17264472 46.21824696 25.05475282 51.375 27.9375 C53.4765634 29.11327963 55.5781259 30.28906089 57.6796875 31.46484375 C59.24541504 32.34052002 59.24541504 32.34052002 60.84277344 33.23388672 C66.06293711 36.15398137 71.28138679 39.07713566 76.5 42 C78.58332501 43.16668154 80.66665834 44.3333482 82.75 45.5 C86.91666667 47.83333333 91.08333333 50.16666667 95.25 52.5 C96.28141113 53.07758057 97.31282227 53.65516113 98.37548828 54.25024414 C100.45722732 55.41603752 102.53893309 56.58189032 104.62060547 57.74780273 C109.85305923 60.6783206 115.08610086 63.60777916 120.3203125 66.53515625 C131.34170521 72.7005888 142.35045319 78.8873397 153.34082031 85.10791016 C163.48992675 90.84911696 173.66585758 96.5421661 183.84277344 102.23388672 C190.09757763 105.73274641 196.35052537 109.23492616 202.60253906 112.73876953 C207.93166796 115.72478945 213.26388032 118.70507419 218.6015625 121.67578125 C229.84597317 127.94058399 241.0329466 134.25927449 252 141 C250.71376313 145.19313995 249.12599272 148.86182872 246.98046875 152.68359375 C246.37710693 153.76398926 245.77374512 154.84438477 245.15209961 155.95751953 C244.50378174 157.10591309 243.85546387 158.25430664 243.1875 159.4375 C242.50813019 160.64934442 241.82918099 161.86142471 241.15063477 163.07373047 C239.10754459 166.71984949 237.0546702 170.36039759 235 174 C234.42185547 175.02528809 233.84371094 176.05057617 233.24804688 177.10693359 C230.58410726 181.82915552 227.91468031 186.54823941 225.2421875 191.265625 C220.0627196 200.41549352 214.93778711 209.59598635 209.80566406 218.77246094 C207.93151876 222.12240698 206.05583176 225.4714856 204.1796875 228.8203125 C203.55312256 229.93873535 202.92655762 231.0571582 202.28100586 232.20947266 C201.08918324 234.33679159 199.89729334 236.46407283 198.70532227 238.59130859 C195.45858341 244.3877844 192.22167751 250.18955545 189 256 C189.71430176 256.27223389 190.42860352 256.54446777 191.16455078 256.82495117 C194.00652178 258.00270271 196.65875961 259.34325761 199.3671875 260.80078125 C200.40528564 261.35878418 201.44338379 261.91678711 202.51293945 262.49169922 C203.62241943 263.09256348 204.73189941 263.69342773 205.875 264.3125 C207.03539795 264.93914551 208.1957959 265.56579102 209.39135742 266.21142578 C217.6655139 270.6900879 225.87399539 275.27919854 234.05053711 279.93359375 C242.30839394 284.62905538 250.61686044 289.22957265 258.9375 293.8125 C259.59271637 294.17341736 260.24793274 294.53433472 260.92300415 294.90618896 C264.61443334 296.93910273 268.30680597 298.97029373 272 301 C270.68421333 305.31584452 269.01077332 309.06803915 266.8046875 313 C266.1746582 314.12873535 265.54462891 315.2574707 264.89550781 316.42041016 C264.22235051 317.61380161 263.54884216 318.80699511 262.875 320 C262.19080127 321.21777923 261.50688265 322.43571588 260.82324219 323.65380859 C259.48673645 326.03342615 258.14710427 328.41124723 256.80566406 330.78808594 C255.29938037 333.46746239 253.81066211 336.15475534 252.3359375 338.8515625 C251.64072034 340.1094277 250.94541911 341.36724644 250.25 342.625 C249.67765625 343.66914062 249.1053125 344.71328125 248.515625 345.7890625 C247 348 247 348 244 349 C241.42578125 347.8828125 241.42578125 347.8828125 238.3125 346.125 C237.74688354 345.80946167 237.18126709 345.49392334 236.59851074 345.16882324 C234.72692563 344.12188826 232.86367536 343.06094132 231 342 C229.68741449 341.26266423 228.37425496 340.52634946 227.06054688 339.79101562 C224.35398888 338.27441411 221.65043944 336.75264935 218.94921875 335.2265625 C213.15034422 331.95279964 207.32389377 328.72899956 201.5 325.5 C199.27338586 324.26181162 197.04682379 323.02352958 194.8203125 321.78515625 C188.29370041 318.1591557 181.75569968 314.55407174 175.21600342 310.95175171 C155.03072981 299.83121382 134.90141981 288.62299846 115 277 C115.5792798 273.3098939 116.58231327 270.58612521 118.44921875 267.359375 C118.96025146 266.46686035 119.47128418 265.5743457 119.99780273 264.65478516 C120.55540283 263.69620605 121.11300293 262.73762695 121.6875 261.75 C122.88081196 259.66961696 124.07349924 257.5888755 125.265625 255.5078125 C125.88373047 254.43305664 126.50183594 253.35830078 127.13867188 252.25097656 C130.10892471 247.0631635 133.0229921 241.84427061 135.9375 236.625 C137.10795542 234.53248636 138.27852913 232.44003888 139.44921875 230.34765625 C140.32392822 228.78362061 140.32392822 228.78362061 141.21630859 227.18798828 C143.02430308 223.95656316 144.83412176 220.72616642 146.64453125 217.49609375 C152.04608111 207.85836205 157.44425888 198.21883542 162.8125 188.5625 C163.22725586 187.81685791 163.64201172 187.07121582 164.06933594 186.30297852 C166.08743414 182.67954958 166.08743414 182.67954958 168 179 C164.68604223 177.87024167 161.40297337 176.82115227 158 176 C157.63874023 176.67764404 157.27748047 177.35528809 156.90527344 178.0534668 C150.2892721 190.44645352 143.62141094 202.79255196 136.60571289 214.96508789 C132.56630569 221.98187674 128.61387058 229.04438606 124.6875 236.125 C124.0586792 237.25897217 123.4298584 238.39294434 122.78198242 239.5612793 C120.85387033 243.04041882 118.92689834 246.52018813 117 250 C109.87570327 262.85742644 102.74813278 275.71186473 95.5 288.5 C90.94874003 296.53226106 86.42551323 304.57960888 81.93505859 312.64599609 C80.96561679 314.38700539 79.99455124 316.12711023 79.0234375 317.8671875 C75.88173519 323.51953744 72.83267613 329.1863031 70 335 C70.7022168 335.26393555 71.40443359 335.52787109 72.12792969 335.79980469 C75.20186207 337.08435515 78.03927205 338.58796582 80.953125 340.203125 C81.52260361 340.51774185 82.09208221 340.8323587 82.67881775 341.1565094 C84.53762197 342.1845619 86.39395334 343.21697834 88.25 344.25 C89.53940731 344.96585078 90.82887745 345.68158841 92.1184082 346.3972168 C94.10050301 347.4976525 96.08226537 348.59867067 98.06318665 349.70121765 C101.90473598 351.83919053 105.75201855 353.96614659 109.6065979 356.08053589 C112.46986538 357.65247913 115.32819869 359.23335715 118.1875 360.8125 C119.24936523 361.39225586 120.31123047 361.97201172 121.40527344 362.56933594 C122.37883789 363.10977539 123.35240234 363.65021484 124.35546875 364.20703125 C125.20778076 364.6760083 126.06009277 365.14498535 126.93823242 365.62817383 C129 367 129 367 131 370 C130.52711548 370.83301636 130.52711548 370.83301636 130.04467773 371.68286133 C122.85467666 384.35660851 115.72645576 397.06291604 108.65991211 409.8059082 C103.88659956 418.41156648 99.08566561 427.0013587 94.26977539 435.58325195 C91.25785449 440.95446155 88.25901969 446.33242784 85.28125 451.72265625 C78.7474537 463.54571621 72.11837248 475.29464548 65.27172852 486.93945312 C59.58751688 496.63769471 54.14851015 506.46673399 48.7109375 516.3046875 C43.21403682 526.24440807 37.60734948 536.12229493 32 546 C19.75873706 540.11921911 7.97395819 533.54171937 -3.81640625 526.81005859 C-9.50758483 523.57429188 -15.223295 520.3823548 -20.9375 517.1875 C-22.0402124 516.57052246 -23.1429248 515.95354492 -24.27905273 515.31787109 C-26.85245779 513.87814364 -29.42610083 512.43884383 -32 511 C-30.85084053 507.32695799 -29.61484515 504.02098327 -27.671875 500.69921875 C-27.20918213 499.90016113 -26.74648926 499.10110352 -26.26977539 498.27783203 C-25.76824951 497.42302246 -25.26672363 496.56821289 -24.75 495.6875 C-23.65908981 493.80400269 -22.56929229 491.9198606 -21.48046875 490.03515625 C-20.90989746 489.04918457 -20.33932617 488.06321289 -19.75146484 487.04736328 C-16.81100776 481.93127946 -13.93785599 476.77786568 -11.0625 471.625 C-4.95117462 460.68845772 1.20176404 449.77605808 7.37353516 438.87353516 C10.16740916 433.93749538 12.95882823 429.00006818 15.75 424.0625 C16.2872168 423.11221924 16.82443359 422.16193848 17.37792969 421.18286133 C21.93008611 413.12834579 26.46916485 405.06652562 31 397 C18.87121776 390.03334817 6.70840852 383.13118928 -5.50585938 376.31542969 C-10.89346303 373.30726738 -16.27035175 370.2823174 -21.62890625 367.22265625 C-22.68867676 366.6186499 -23.74844727 366.01464355 -24.84033203 365.39233398 C-26.86807966 364.2352423 -28.89387796 363.07472617 -30.91748047 361.91040039 C-32.27123779 361.13877563 -32.27123779 361.13877563 -33.65234375 360.3515625 C-34.44632568 359.89604004 -35.24030762 359.44051758 -36.05834961 358.97119141 C-37.93628741 357.85088382 -37.93628741 357.85088382 -40 358 C-40.35602295 358.63687744 -40.7120459 359.27375488 -41.07885742 359.92993164 C-47.52950445 371.46640784 -53.98827117 382.99786124 -60.5 394.5 C-65.02201862 402.48777416 -69.519651 410.48877993 -74 418.5 C-79.01059503 427.4593421 -84.04829051 436.40281974 -89.10546875 445.3359375 C-93.09036769 452.37946347 -97.04989994 459.43690717 -101 466.5 C-106.01059503 475.4593421 -111.04829051 484.40281974 -116.10546875 493.3359375 C-120.09036769 500.37946347 -124.04989994 507.43690717 -128 514.5 C-133.01059503 523.4593421 -138.04829051 532.40281974 -143.10546875 541.3359375 C-147.6758825 549.4143928 -152.2110653 557.51230063 -156.7409668 565.61352539 C-161.46841572 574.06321831 -166.22736802 582.49482785 -171.00195312 590.91796875 C-171.51306641 591.8203125 -172.02417969 592.72265625 -172.55078125 593.65234375 C-173.22620972 594.84331665 -173.22620972 594.84331665 -173.9152832 596.05834961 C-174.64018326 597.3559256 -175.33529201 598.67058402 -176 600 C-179.84463994 598.55495176 -183.36225301 596.78730827 -186.953125 594.796875 C-187.52246765 594.48225815 -188.0918103 594.1676413 -188.67840576 593.8434906 C-190.53723541 592.81524163 -192.39366087 591.78273739 -194.25 590.75 C-195.54156442 590.03407658 -196.83323232 589.31833982 -198.125 588.6027832 C-202.08611362 586.40684038 -206.04354732 584.20432707 -210 582 C-210.62189209 581.65362488 -211.24378418 581.30724976 -211.88452148 580.95037842 C-217.94821126 577.57238751 -224.00809071 574.18756734 -230.0625 570.79296875 C-230.89910156 570.3239917 -231.73570312 569.85501465 -232.59765625 569.37182617 C-235.08743284 567.95007265 -237.54677728 566.48379525 -240 565 C-238.4403234 559.40139207 -235.73250964 554.78270905 -232.8125 549.8125 C-231.722412 547.93188506 -230.63394906 546.05032748 -229.546875 544.16796875 C-228.6815918 542.67015869 -228.6815918 542.67015869 -227.79882812 541.14208984 C-224.66453342 535.66728354 -221.61612659 530.14507788 -218.5625 524.625 C-213.36636843 515.24408665 -208.12812972 505.88893888 -202.84179688 496.55859375 C-197.11361307 486.44509706 -191.43957386 476.30149309 -185.76611328 466.15722656 C-182.84601863 460.93706289 -179.92286434 455.71861321 -177 450.5 C-175.83331846 448.41667499 -174.6666518 446.33334166 -173.5 444.25 C-171.16666667 440.08333333 -168.83333333 435.91666667 -166.5 431.75 C-165.92241943 430.71858887 -165.34483887 429.68717773 -164.74975586 428.62451172 C-163.58396248 426.54277268 -162.41810968 424.46106691 -161.25219727 422.37939453 C-158.3216794 417.14694077 -155.39222084 411.91389914 -152.46484375 406.6796875 C-146.2994112 395.65829479 -140.1126603 384.64954681 -133.89208984 373.65917969 C-128.15088304 363.51007325 -122.4578339 353.33414242 -116.76611328 343.15722656 C-113.84601863 337.93706289 -110.92286434 332.71861321 -108 327.5 C-106.83331846 325.41667499 -105.6666518 323.33334166 -104.5 321.25 C-102.16666667 317.08333333 -99.83333333 312.91666667 -97.5 308.75 C-96.6325415 307.20094971 -96.6325415 307.20094971 -95.74755859 305.62060547 C-94.58906965 303.55189834 -93.43054146 301.48321319 -92.27197266 299.41455078 C-89.2298529 293.98262267 -86.18855739 288.55023517 -83.1484375 283.1171875 C-82.51679687 281.98861328 -81.88515625 280.86003906 -81.234375 279.69726562 C-80.02839285 277.54245928 -78.82264916 275.38751944 -77.6171875 273.23242188 C-74.76764772 268.14155777 -71.90520942 263.05931592 -69 258 C-65.24363907 258.59077541 -62.3982864 259.65975166 -59.0703125 261.484375 C-58.12244873 262.0004834 -57.17458496 262.5165918 -56.19799805 263.04833984 C-55.18390869 263.6098877 -54.16981934 264.17143555 -53.125 264.75 C-52.05999268 265.33346191 -50.99498535 265.91692383 -49.89770508 266.51806641 C-41.85687204 270.93699347 -33.86081684 275.43490893 -25.8840332 279.96826172 C-17.1203215 284.94810234 -8.30879886 289.83991707 0.51489258 294.71240234 C7.73713739 298.70983342 14.88734206 302.81082255 22 307 C24.3857856 304.11679796 26.50248365 301.36477442 28.19140625 298.0234375 C28.57377441 297.27892334 28.95614258 296.53440918 29.35009766 295.76733398 C29.75019043 294.97786377 30.1502832 294.18839355 30.5625 293.375 C34.65827125 285.41810293 39.0160418 277.65642169 43.59594727 269.96826172 C44.04123779 269.21432129 44.48652832 268.46038086 44.9453125 267.68359375 C45.34250488 267.01900146 45.73969727 266.35440918 46.14892578 265.66967773 C47.15137689 264.0153672 47.15137689 264.0153672 47 262 C46.38294189 261.6690332 45.76588379 261.33806641 45.13012695 260.99707031 C33.39141967 254.69216626 21.70350362 248.32101714 10.15844727 241.66748047 C2.89885576 237.49128951 -4.42036207 233.42641879 -11.75 229.375 C-21.93164718 223.74301174 -32.02025844 217.98221462 -42 212 C-40.43284875 206.36007777 -37.68820435 201.6955669 -34.75 196.6875 C-33.65781091 194.80138498 -32.56670991 192.91463956 -31.4765625 191.02734375 C-30.90583008 190.0410498 -30.33509766 189.05475586 -29.74707031 188.03857422 C-26.83060545 182.96614245 -23.97775661 177.85845257 -21.125 172.75 C-20.54073242 171.70481201 -19.95646484 170.65962402 -19.35449219 169.58276367 C-18.16344674 167.45182235 -16.97269229 165.32071836 -15.78222656 163.18945312 C-12.28254486 156.92646111 -8.7749752 150.66788286 -5.26806641 144.40893555 C-2.24698448 139.01608773 0.77017796 133.62110035 3.78125 128.22265625 C4.40386719 127.10761719 5.02648437 125.99257813 5.66796875 124.84375 C6.84893863 122.72858007 8.02871742 120.61274446 9.20703125 118.49609375 C12.31451368 112.93377437 15.51365286 107.46196597 18.91601562 102.07397461 C20.23160383 99.94690334 20.23160383 99.94690334 20 97 C17.36 95.68 14.72 94.36 12 93 C4.34480044 105.7706741 -2.9042926 118.75406184 -10.10993958 131.78233337 C-17.82816803 145.73193205 -25.64849089 159.62507303 -33.5 173.5 C-41.79733648 188.16511825 -50.06691148 202.84589097 -58.1953125 217.60546875 C-58.72625771 218.56936523 -58.72625771 218.56936523 -59.26792908 219.55273438 C-60.98368306 222.66867942 -62.69727511 225.78578596 -64.4074707 228.90478516 C-66.2606578 232.27607685 -68.12892192 235.63861244 -70 239 C-70.31672668 239.58038025 -70.63345337 240.1607605 -70.95977783 240.75872803 C-71.89095007 242.46348587 -72.83779463 244.1596542 -73.78515625 245.85546875 C-74.33179932 246.84571045 -74.87844238 247.83595215 -75.44165039 248.85620117 C-76.21303345 249.91738159 -76.21303345 249.91738159 -77 251 C-80.4574248 251 -81.79799979 250.22266377 -84.8046875 248.578125 C-86.25488281 247.7895813 -86.25488281 247.7895813 -87.734375 246.98510742 C-88.77078125 246.41252197 -89.8071875 245.83993652 -90.875 245.25 C-91.93460938 244.67032471 -92.99421875 244.09064941 -94.0859375 243.4934082 C-104.46508612 237.7933713 -114.75158712 231.93133365 -125 226 C-124.4032013 221.99447552 -123.13681748 219.07062902 -121.1484375 215.5546875 C-120.55208496 214.4915332 -119.95573242 213.42837891 -119.34130859 212.33300781 C-118.36798584 210.62129395 -118.36798584 210.62129395 -117.375 208.875 C-116.69671583 207.67064843 -116.0191564 206.46588842 -115.34228516 205.26074219 C-113.93405424 202.7546295 -112.52270982 200.25030781 -111.109375 197.74707031 C-107.83119753 191.93326314 -104.60771533 186.08917129 -101.375 180.25 C-96.2653468 171.04204798 -91.10772407 161.8626528 -85.91357422 152.70214844 C-81.73506487 145.3238108 -77.61081033 137.91623742 -73.5 130.5 C-68.86934114 122.14591341 -64.21134814 113.80885439 -59.5 105.5 C-54.16680908 96.09292351 -48.90322888 86.64850679 -43.65844727 77.19189453 C-38.2915755 67.51704823 -32.89259128 57.86052942 -27.48046875 48.2109375 C-25.10184947 43.96959264 -22.73018248 39.72445741 -20.36328125 35.4765625 C-13.71965946 23.56266128 -6.99237077 11.71302662 0 0 Z " fill="#89939E" transform="translate(984,316)"/>
<path d="M0 0 C7.11994513 6.10968264 13.41022287 12.3028343 18.625 20.125 C18.955 9.895 19.285 -0.335 19.625 -10.875 C31.175 -10.875 42.725 -10.875 54.625 -10.875 C54.67154952 14.7967454 54.7071169 40.46848044 54.72862434 66.14025974 C54.73888166 78.06349193 54.75283417 89.98669721 54.77587891 101.90991211 C54.79598446 112.31748584 54.80875657 122.72504006 54.81317699 133.13263267 C54.81575572 138.62944232 54.82169695 144.1261962 54.83646011 149.62298775 C55.10804195 255.0356939 55.10804195 255.0356939 29.625 285.125 C28.92375 286.094375 28.2225 287.06375 27.5 288.0625 C16.39017908 301.0005193 -1.0480953 307.91661614 -17.375 311.125 C-18.27605469 311.30232666 -19.17710937 311.47965332 -20.10546875 311.66235352 C-28.69930348 313.17286248 -37.10518625 313.46540359 -45.80273438 313.44067383 C-48.1085588 313.43752247 -50.41308362 313.46104239 -52.71875 313.48632812 C-77.84192683 313.59519868 -102.85796744 306.98364918 -121.375 289.125 C-133.20238893 275.65853985 -138.61115247 261.76347527 -140.375 244.125 C-127.505 244.125 -114.635 244.125 -101.375 244.125 C-99.395 251.055 -99.395 251.055 -97.375 258.125 C-91.13707996 269.20049069 -82.54120976 274.72630068 -70.46484375 278.34765625 C-50.8858256 283.27335108 -29.50398354 282.6637178 -11.375 273.125 C-0.29710708 266.41343665 6.84454675 256.27904285 10.25488281 243.82470703 C13.62960762 229.99164929 14.77654574 216.78125724 14.6875 202.5625 C14.68247366 201.15820473 14.67791276 199.7539077 14.67382812 198.34960938 C14.66211593 194.94136097 14.64571372 191.5332036 14.625 188.125 C13.60792969 189.26775391 13.60792969 189.26775391 12.5703125 190.43359375 C-2.48390489 207.21297259 -19.99784469 221.95963549 -43.66796875 223.25 C-72.08838465 224.11122472 -95.40665075 216.76122542 -116.375 197.125 C-129.8349865 184.05682817 -138.07075656 166.89031137 -143.1875 149.0625 C-143.3824707 148.39186523 -143.57744141 147.72123047 -143.77832031 147.03027344 C-147.3097899 133.85733134 -147.75227605 120.47881285 -147.6875 106.9375 C-147.68534485 106.12418213 -147.6831897 105.31086426 -147.68096924 104.47290039 C-147.62863995 92.14980705 -147.23119582 80.16567457 -144.375 68.125 C-144.07698486 66.84399414 -144.07698486 66.84399414 -143.77294922 65.53710938 C-140.81438466 53.24189128 -136.67118852 42.09214779 -130.375 31.125 C-129.80910156 30.13242188 -129.24320313 29.13984375 -128.66015625 28.1171875 C-116.35183467 7.78673632 -98.39994137 -7.19823778 -75.25 -13.3125 C-72.96686522 -13.86954492 -70.67530085 -14.39373138 -68.375 -14.875 C-67.47652344 -15.06578125 -66.57804687 -15.2565625 -65.65234375 -15.453125 C-42.09829765 -18.48511186 -19.06091727 -14.68969287 0 0 Z M-88.375 36.125 C-108.09033629 60.61283005 -111.52033516 92.73257497 -108.375 123.125 C-106.01323107 143.64513851 -98.12228905 163.40909731 -82.1015625 177.0625 C-67.63045745 187.9275368 -49.84440106 190.30104795 -32.24023438 187.82470703 C-24.54855744 186.23073491 -17.73677787 182.63308742 -11.375 178.125 C-10.68921875 177.64675781 -10.0034375 177.16851563 -9.296875 176.67578125 C6.33148243 164.46228145 12.1006182 143.23807524 15.21875 124.5703125 C15.96704272 117.99946744 15.8693984 111.35561552 15.875 104.75 C15.87567474 104.03635284 15.87634949 103.32270569 15.87704468 102.58743286 C15.83904319 77.27453765 11.09609434 52.24028123 -7.02734375 33.30859375 C-18.90733843 22.25881501 -32.85012716 17.54260832 -48.953125 17.8828125 C-64.18652276 18.96097536 -78.01132835 24.67342912 -88.375 36.125 Z " fill="#626265" transform="translate(1363.375,1456.875)"/>
<path d="M0 0 C1.00329346 0.00491455 2.00658691 0.0098291 3.0402832 0.01489258 C21.36002109 0.30272989 38.05182479 5.75727619 51.26953125 18.875 C54.90146369 22.81790565 58.03291889 26.64209636 60.6875 31.3125 C64.56034974 29.7472605 66.79687833 27.27375114 69.625 24.25 C84.15214095 9.26270097 102.81933696 0.61150752 123.75 0.109375 C147.8731187 -0.16143721 147.8731187 -0.16143721 159.6875 3.3125 C161.16669922 3.73015625 161.16669922 3.73015625 162.67578125 4.15625 C174.64085614 7.99566545 184.91945043 16.09623503 191.25390625 27.01171875 C196.59259555 38.18312532 198.86079262 49.77972739 198.80775452 62.10803223 C198.80903615 63.22084446 198.80903615 63.22084446 198.81034368 64.35613775 C198.81197854 66.81883068 198.80651008 69.28145407 198.80102539 71.74414062 C198.80074306 73.51869709 198.80090215 75.29325366 198.8014679 77.06781006 C198.80175409 81.8688464 198.79588617 86.66985762 198.78889394 91.47088814 C198.78263072 96.49438473 198.78205425 101.51788194 198.78086853 106.54138184 C198.77776396 116.04676657 198.76956237 125.55213977 198.75951904 135.05751944 C198.74833074 145.88216491 198.74284061 156.70681094 198.73782361 167.53146076 C198.72737902 189.79181504 198.70904441 212.05215351 198.6875 234.3125 C186.1475 234.3125 173.6075 234.3125 160.6875 234.3125 C160.66562622 226.77293457 160.66562622 226.77293457 160.64331055 219.08105469 C160.59293968 202.46091007 160.52648914 185.84085834 160.45178509 169.22080612 C160.40689033 159.14558714 160.36746116 149.07040301 160.34106445 138.99511719 C160.31803311 130.2097113 160.28457794 121.42441627 160.23879844 112.63909841 C160.21493534 107.99077433 160.19616137 103.34255958 160.18988609 98.69417572 C160.18380382 94.3110676 160.16369157 89.92823898 160.13322449 85.54523468 C160.12449433 83.9441879 160.12071116 82.34310451 160.12249184 80.74203491 C160.13186655 68.41379585 159.56223913 57.24098556 151.89453125 47.0546875 C150.6875 45.3125 150.6875 45.3125 150.6875 43.3125 C150.15125 43.065 149.615 42.8175 149.0625 42.5625 C146.6875 41.3125 146.6875 41.3125 144.0625 39.375 C133.49913016 32.91960732 119.72506172 31.99293757 107.7578125 34.40234375 C91.97229766 39.08176482 80.63223959 49.0230031 72.6875 63.3125 C66.83958674 75.58267513 66.38865076 88.91589323 66.36865234 102.2824707 C66.3593279 103.73265119 66.3491556 105.18282644 66.33821106 106.63299561 C66.31118012 110.52671868 66.29584266 114.42040616 66.28278303 118.31419778 C66.26703317 122.39946286 66.24028152 126.48465644 66.2147522 130.56987 C66.16817245 138.28654917 66.13132843 146.00324212 66.09807932 153.719989 C66.0597099 162.51339618 66.01033914 171.30673118 65.96009517 180.10007727 C65.85708515 198.17083791 65.769177 216.24162948 65.6875 234.3125 C53.4775 234.3125 41.2675 234.3125 28.6875 234.3125 C28.66562622 226.97040283 28.66562622 226.97040283 28.64331055 219.47998047 C28.59290695 203.28293586 28.52645005 187.08598625 28.45178509 170.88903618 C28.40691883 161.07170565 28.36748324 151.25441066 28.34106445 141.43701172 C28.31800986 132.87498789 28.2845292 124.31307739 28.23879844 115.75114357 C28.21496638 111.22236297 28.19617224 106.69369391 28.18988609 102.16485214 C28.18378956 97.89171918 28.16362727 93.61887122 28.13322449 89.34584427 C28.1245168 87.78756447 28.12070637 86.22924732 28.12249184 84.67094421 C28.13332155 70.84301428 27.49357312 55.17760273 17.90234375 44.28515625 C9.20790341 36.109271 -1.22524908 33.46852413 -12.95703125 33.2421875 C-28.53150839 33.78753479 -41.44707691 39.7227539 -52.125 51.125 C-64.53069826 66.37985385 -66.4372299 83.79562585 -66.51782227 102.73657227 C-66.52741834 104.17630788 -66.53742939 105.61604078 -66.54782104 107.05577087 C-66.57468897 110.93939409 -66.59579573 114.82302923 -66.61582303 118.70669293 C-66.63779528 122.77461204 -66.66512862 126.84249515 -66.69187927 130.91038513 C-66.74165503 138.60241374 -66.78664949 146.29446249 -66.82990164 153.98653024 C-66.87940379 162.74838563 -66.9342735 171.51020487 -66.98958123 180.27202523 C-67.103169 198.28548466 -67.20934952 216.29897757 -67.3125 234.3125 C-79.5225 234.3125 -91.7325 234.3125 -104.3125 234.3125 C-104.3125 158.7425 -104.3125 83.1725 -104.3125 5.3125 C-92.7625 5.3125 -81.2125 5.3125 -69.3125 5.3125 C-68.8175 19.6675 -68.8175 19.6675 -68.3125 34.3125 C-62.21215578 27.53716742 -62.21215578 27.53716742 -56.125 20.75 C-41.16608491 6.20279816 -20.47403889 -0.11983278 0 0 Z " fill="#626264" transform="translate(1799.3125,1440.6875)"/>
<path d="M0 0 C0.76441406 0.71542969 1.52882812 1.43085937 2.31640625 2.16796875 C3.75693359 3.47314453 3.75693359 3.47314453 5.2265625 4.8046875 C24.47199481 22.75343091 35.76184739 48.50691763 40.31640625 74.16796875 C40.31640625 75.48796875 40.31640625 76.80796875 40.31640625 78.16796875 C26.12640625 78.16796875 11.93640625 78.16796875 -2.68359375 78.16796875 C-4.33359375 72.22796875 -5.98359375 66.28796875 -7.68359375 60.16796875 C-8.93228097 57.1027905 -10.06533168 54.39817049 -11.62109375 51.54296875 C-11.96390381 50.88820557 -12.30671387 50.23344238 -12.65991211 49.55883789 C-15.25090824 44.71574721 -18.0353492 40.27224387 -21.68359375 36.16796875 C-22.16828125 35.59175781 -22.65296875 35.01554687 -23.15234375 34.421875 C-36.67716513 19.53794166 -58.03833576 14.18023986 -77.45361328 12.99951172 C-100.48645848 12.06948131 -122.69487217 15.22177566 -141.68359375 29.16796875 C-142.58464844 29.8125 -143.48570312 30.45703125 -144.4140625 31.12109375 C-165.84076532 47.44044428 -176.83311264 73.59209506 -182.68359375 99.16796875 C-182.85020508 99.895 -183.01681641 100.62203125 -183.18847656 101.37109375 C-188.47646931 126.07028969 -188.40611139 156.56577025 -182.68359375 181.16796875 C-182.48491699 182.02793457 -182.28624023 182.88790039 -182.08154297 183.77392578 C-177.64336423 202.2281057 -170.51426572 218.30014071 -158.68359375 233.16796875 C-157.97589844 234.07160156 -157.26820313 234.97523438 -156.5390625 235.90625 C-142.38585363 252.79031921 -119.66168094 264.00898057 -97.86376953 266.02294922 C-71.93302227 267.747794 -47.17149633 265.03135812 -25.99609375 248.48046875 C-14.28214751 237.67855725 -7.80493296 223.27953484 -2.99609375 208.41796875 C-2.58593018 207.15267334 -2.58593018 207.15267334 -2.16748047 205.86181641 C0.56025438 197.03252603 2.29241833 188.27591438 4.31640625 179.16796875 C18.50640625 179.16796875 32.69640625 179.16796875 47.31640625 179.16796875 C44.96677125 199.13986627 44.96677125 199.13986627 43.12890625 206.54296875 C42.80744629 207.85249512 42.80744629 207.85249512 42.47949219 209.18847656 C37.24540864 229.70282663 28.82397828 248.75895075 15.31640625 265.16796875 C14.70539063 265.94269531 14.094375 266.71742188 13.46484375 267.515625 C-5.10121386 289.91340089 -34.12269101 300.5046759 -62.30078125 303.76171875 C-69.18519207 304.38146867 -76.08823086 304.41199502 -82.99609375 304.41796875 C-83.70090881 304.41864349 -84.40572388 304.41931824 -85.13189697 304.42001343 C-123.10525971 304.36254476 -157.06096693 293.24644912 -184.51171875 266.40234375 C-196.38044262 253.99104965 -205.74889855 239.85727059 -212.68359375 224.16796875 C-212.95896973 223.54712402 -213.2343457 222.9262793 -213.51806641 222.28662109 C-234.666686 173.80669324 -234.02152984 115.12462515 -215.75244141 65.89013672 C-213.1995002 59.38824214 -210.07164825 53.26784691 -206.68359375 47.16796875 C-205.87341797 45.64429688 -205.87341797 45.64429688 -205.046875 44.08984375 C-188.52651412 14.16919014 -162.01396048 -9.67694972 -128.86572266 -19.25292969 C-87.8127241 -30.14772859 -33.74915603 -29.40578639 0 0 Z " fill="#636365" transform="translate(230.68359375,1375.83203125)"/>
<path d="M0 0 C24.00815909 20.6100254 34.10821406 51.3270002 36.79711914 81.98779297 C39.51070412 117.62686216 35.38717992 156.72106705 11.6796875 185.09375 C-5.32822946 204.6679774 -27.08925575 214.98136367 -52.6875 217.875 C-83.42329817 219.74141151 -112.49987203 215.47711081 -136.46606445 194.93359375 C-157.90543675 175.77021403 -167.94882176 147.93272289 -170.6875 119.875 C-170.83849802 116.84734974 -170.87444044 113.82406447 -170.890625 110.79296875 C-170.89632507 109.93931229 -170.90202515 109.08565582 -170.90789795 108.20613098 C-170.91729683 106.40346493 -170.92386145 104.6007821 -170.92773438 102.7980957 C-170.9373379 100.10790853 -170.96836742 97.41852079 -171 94.72851562 C-171.09441922 79.43216276 -169.60995528 64.34483508 -165 49.6875 C-164.74653809 48.86709229 -164.49307617 48.04668457 -164.23193359 47.20141602 C-156.40743268 22.96048323 -140.4353116 2.05193676 -118.06640625 -10.4609375 C-81.5366204 -28.45132914 -31.95755325 -26.25627258 0 0 Z M-112.6875 32.875 C-126.20647698 50.13924215 -132.06977272 71.17397223 -132.6875 92.875 C-132.72746094 94.0403125 -132.76742187 95.205625 -132.80859375 96.40625 C-133.23095879 120.05869237 -128.9565373 145.62613276 -112.6875 163.875 C-112.17960938 164.4628125 -111.67171875 165.050625 -111.1484375 165.65625 C-101.97687641 175.56675203 -88.83523114 182.12553453 -75.29077148 183.03613281 C-55.02726805 183.37894019 -39.07366079 181.20004625 -23.6875 166.875 C-9.16964946 151.77958578 -2.61412284 129.77471031 -2.484375 109.1328125 C-2.47867493 108.40617401 -2.47297485 107.67953552 -2.46710205 106.93087769 C-2.45770481 105.3963158 -2.45113921 103.86173421 -2.44726562 102.32714844 C-2.4376705 100.04062941 -2.40664435 97.75505456 -2.375 95.46875 C-2.27756269 82.04721303 -3.69546973 68.66009526 -8.4375 56 C-8.69426514 55.29931396 -8.95103027 54.59862793 -9.21557617 53.87670898 C-14.75547674 39.38966073 -25.59489229 25.59629012 -39.53515625 18.40625 C-64.46527637 7.34049346 -94.29161298 12.12284967 -112.6875 32.875 Z " fill="#636365" transform="translate(628.6875,1462.125)"/>
<path d="M0 0 C12.472522 10.69317729 20.14619945 24.36166915 22.09765625 40.75390625 C22.09765625 43.72390625 22.09765625 46.69390625 22.09765625 49.75390625 C8.56765625 49.75390625 -4.96234375 49.75390625 -18.90234375 49.75390625 C-20.88234375 42.32890625 -20.88234375 42.32890625 -22.90234375 34.75390625 C-28.20020658 25.99621463 -34.58675421 21.62519204 -44.3828125 18.72265625 C-63.34030432 14.40777929 -83.08108719 15.89476036 -100.08984375 25.56640625 C-106.35517636 30.43944272 -110.56410363 35.77643603 -111.90234375 43.75390625 C-112.07743603 51.48131204 -110.22148406 57.34883341 -105.08984375 63.19140625 C-90.1586489 77.11290965 -66.22583159 79.62049518 -47.08395386 83.81613159 C5.8026462 95.42653022 5.8026462 95.42653022 19.7578125 115.60546875 C29.30138911 130.90857993 31.67717639 148.63004452 27.96630859 166.22680664 C24.94127694 178.64858597 19.07751737 187.75858926 10.09765625 196.75390625 C9.48277344 197.38039063 8.86789062 198.006875 8.234375 198.65234375 C-13.56560114 219.28529761 -45.13129169 221.53641732 -73.51171875 221.03515625 C-99.16280353 220.25430131 -123.29754531 213.10373658 -141.9375 194.75 C-153.84562232 181.79500978 -158.90234375 166.12519022 -158.90234375 148.75390625 C-145.04234375 148.75390625 -131.18234375 148.75390625 -116.90234375 148.75390625 C-114.92234375 154.03390625 -112.94234375 159.31390625 -110.90234375 164.75390625 C-105.63318505 174.35548433 -99.62299206 178.747179 -89.21484375 182.06640625 C-69.53256417 187.76201096 -46.03892712 186.96436949 -27.33984375 178.37890625 C-19.27805891 173.90163983 -13.70444488 168.79254218 -10.90234375 159.75390625 C-9.98519733 153.05230124 -9.95089897 146.45036174 -13.51953125 140.5234375 C-26.69608708 123.66191266 -51.86199057 121.21698063 -71.37890625 116.76196289 C-82.15547478 114.29440593 -92.79597465 111.64914168 -103.296875 108.171875 C-104.1307373 107.89679611 -104.96459961 107.62171722 -105.82373047 107.33830261 C-121.95665758 101.81866563 -137.67400596 93.35669772 -145.90234375 77.75390625 C-153.5087782 61.96173936 -153.54692046 43.02728253 -147.99609375 26.65234375 C-141.87659726 10.43567804 -129.53940524 -1.86143391 -113.90234375 -9.24609375 C-108.0314654 -11.66919895 -102.02214367 -13.56218445 -95.90234375 -15.24609375 C-95.24733887 -15.42688477 -94.59233398 -15.60767578 -93.91748047 -15.79394531 C-63.42691516 -23.70152683 -25.37520714 -19.63760983 0 0 Z " fill="#636365" transform="translate(1074.90234375,1459.24609375)"/>
<path d="M0 0 C2.5162706 2.20173677 4.91526248 4.47015849 7.28125 6.83203125 C7.92964844 7.46882813 8.57804688 8.105625 9.24609375 8.76171875 C18.54750465 18.57195957 22.93609117 31.39510322 23.85546875 44.6796875 C23.93756592 45.83605713 24.01966309 46.99242676 24.10424805 48.18383789 C24.19186401 49.4946936 24.19186401 49.4946936 24.28125 50.83203125 C18.46053378 50.85667763 12.63984766 50.87486555 6.8190918 50.88696289 C4.83731559 50.89200392 2.85554311 50.89883663 0.8737793 50.9074707 C-1.96827109 50.9195464 -4.81027247 50.9252617 -7.65234375 50.9296875 C-8.98983925 50.93742943 -8.98983925 50.93742943 -10.35435486 50.94532776 C-12.47615601 50.94552302 -14.5978578 50.89413155 -16.71875 50.83203125 C-18.28551359 49.26526766 -18.17852761 47.42871971 -18.53125 45.26953125 C-19.48747604 40.24395228 -21.24052607 36.26572876 -23.71875 31.83203125 C-24.0075 31.13851563 -24.29625 30.445 -24.59375 29.73046875 C-26.0100021 27.34054333 -27.17809334 26.89025808 -29.71875 25.83203125 C-30.48832031 25.42984375 -31.25789062 25.02765625 -32.05078125 24.61328125 C-48.96877403 15.87453852 -68.56531551 15.78210997 -86.71875 20.83203125 C-96.67316217 24.80267387 -104.41191481 29.55699383 -108.96875 39.58203125 C-110.6295854 46.77898466 -110.41276935 53.16204489 -107.01953125 59.80859375 C-100.73852291 69.57905118 -87.80482019 74.16241296 -77.09375 77.234375 C-76.36991119 77.4444519 -75.64607239 77.65452881 -74.90029907 77.87097168 C-64.47116862 80.8307814 -53.86591193 83.100676 -43.28808594 85.45703125 C-14.43655491 91.90655268 -14.43655491 91.90655268 -1.34375 98.70703125 C-0.67730469 99.04871338 -0.01085937 99.39039551 0.67578125 99.74243164 C13.40870167 106.44241742 23.62987173 115.94837186 28.28125 129.83203125 C32.99344896 147.23676613 32.99960085 166.5613096 24.28125 182.83203125 C17.1343887 194.13330413 8.84923906 202.19145079 -2.71875 208.83203125 C-3.49863281 209.28449219 -4.27851562 209.73695313 -5.08203125 210.203125 C-31.90791924 224.67557886 -68.62521448 225.84817938 -97.71875 218.83203125 C-98.4092041 218.66574219 -99.0996582 218.49945312 -99.81103516 218.328125 C-119.18773809 213.42378022 -136.8911223 203.12847242 -147.71875 185.83203125 C-154.31282036 173.72206791 -156.71875 163.64135349 -156.71875 149.83203125 C-142.85875 149.83203125 -128.99875 149.83203125 -114.71875 149.83203125 C-113.06875 154.78203125 -111.41875 159.73203125 -109.71875 164.83203125 C-104.10591965 174.93512589 -96.80611662 180.52685421 -85.71875 183.83203125 C-65.87763831 189.05089067 -40.95529676 188.18878917 -22.76171875 178.1015625 C-15.988267 173.89243856 -11.48586328 168.55570006 -9.09765625 160.8203125 C-7.63206857 153.12975447 -8.97793941 146.82933249 -12.69140625 140.05859375 C-20.70615882 128.66785216 -38.46375546 125.10950446 -51.21875 122.20703125 C-52.80575819 121.82908337 -54.39226106 121.44900779 -55.97827148 121.06689453 C-59.85351107 120.13671833 -63.73283979 119.22548374 -67.61444092 118.32226562 C-120.00864182 106.11615078 -120.00864182 106.11615078 -136.71875 88.83203125 C-137.22921875 88.31898437 -137.7396875 87.8059375 -138.265625 87.27734375 C-148.21758984 76.40390068 -150.50049714 60.98299038 -149.99609375 46.77734375 C-148.82741923 30.15253724 -142.7056181 16.45173402 -130.71875 4.83203125 C-130.17863281 4.28289062 -129.63851562 3.73375 -129.08203125 3.16796875 C-119.7170983 -5.65441141 -106.99507063 -11.0234756 -94.71875 -14.16796875 C-93.76234619 -14.41353516 -93.76234619 -14.41353516 -92.78662109 -14.6640625 C-63.21335407 -21.78695936 -24.56727784 -19.59028621 0 0 Z " fill="#636365" transform="translate(854.71875,1458.16796875)"/>
<path d="M0 0 C13.2 0 26.4 0 40 0 C50.32971111 29.97861813 60.3089939 60.0615595 70.14753723 90.20379639 C72.91787068 98.69102515 75.69472701 107.1760873 78.47737503 115.6592865 C79.90791469 120.02071608 81.33758625 124.38243037 82.76745605 128.74407959 C83.53598684 131.08795818 84.30477754 133.43175158 85.07385254 135.77545166 C86.14274952 139.03354668 87.21048868 142.29201707 88.27734375 145.55078125 C88.60562164 146.55314819 88.93389954 147.55551514 89.27212524 148.58825684 C91.62400263 155.79218388 93.89047181 163.01905239 96.09204102 170.27026367 C96.73536006 172.88462326 96.73536006 172.88462326 98 174 C98.23342606 173.34095169 98.46685211 172.68190338 98.70735168 172.00288391 C110.88713441 137.61796067 123.10673581 103.24812579 135.442276 68.91870117 C137.95743529 61.91509793 140.46147649 54.90759679 142.95918274 47.89775085 C144.71432433 42.97228333 146.47217023 38.04778271 148.23013306 33.12332153 C149.06885051 30.77148209 149.90625805 28.41917505 150.74227905 26.06637573 C151.8976866 22.81515615 153.05772152 19.56562202 154.21875 16.31640625 C154.55848343 15.35650787 154.89821686 14.3966095 155.24824524 13.40762329 C155.56786728 12.51586395 155.88748932 11.62410461 156.21679688 10.70532227 C156.62714172 9.55278709 156.62714172 9.55278709 157.04577637 8.37696838 C158.19611943 5.51146704 159.61910268 2.76179465 161 0 C174.2 0 187.4 0 201 0 C197.62512803 11.24957323 197.62512803 11.24957323 196.06494141 15.46313477 C195.71166779 16.42188004 195.35839417 17.38062531 194.99441528 18.36842346 C194.61727386 19.38250778 194.24013245 20.3965921 193.8515625 21.44140625 C193.44710907 22.53658066 193.04265564 23.63175507 192.62594604 24.76011658 C191.29508294 28.36194794 189.96001274 31.96220486 188.625 35.5625 C187.68095531 38.11433018 186.73790252 40.66652646 185.79492188 43.21875 C184.08315564 47.85094454 182.37044197 52.48278645 180.65646744 57.11416435 C176.35642234 68.7338835 172.0744112 80.36023185 167.79354858 91.98703003 C165.6170474 97.89788903 163.43934197 103.8083043 161.26171875 109.71875 C160.82912247 110.89296005 160.39652618 112.0671701 159.95082092 113.27696228 C157.29619553 120.48239169 154.64104784 127.68762844 151.98553467 134.89273071 C150.20376525 139.72717208 148.42213875 144.56166611 146.64056396 149.3961792 C145.75620249 151.79597345 144.87180316 154.19575376 143.98736572 156.59552002 C139.05403565 169.98187797 134.12726279 183.3705898 129.21641541 196.76521301 C126.28434553 204.76190855 123.34590823 212.75624528 120.40296936 220.74894714 C118.43178118 226.10349578 116.46480684 231.45954561 114.50390625 236.81787109 C112.381259 242.61712996 110.2490335 248.4127934 108.11090088 254.20635986 C107.30143495 256.4044982 106.49512091 258.6038004 105.69232178 260.80438232 C93.1541767 295.15499976 93.1541767 295.15499976 81 308 C80.08154297 308.98033203 80.08154297 308.98033203 79.14453125 309.98046875 C68.17636987 320.57444978 54.07636639 324.39251089 39.25 324.3125 C38.18249512 324.30758545 37.11499023 324.3026709 36.01513672 324.29760742 C24.29923112 324.12302378 15.22940874 321.72575312 5 316 C5.66735196 308.8815791 6.88654393 301.99042762 8.375 295 C8.58382813 293.95199219 8.79265625 292.90398437 9.0078125 291.82421875 C9.21921875 290.83035156 9.430625 289.83648438 9.6484375 288.8125 C9.92953369 287.46091797 9.92953369 287.46091797 10.21630859 286.08203125 C10.47492676 285.39496094 10.73354492 284.70789062 11 284 C14.51925831 282.8269139 15.22788481 283.25429424 18.625 284.4375 C27.74308813 287.04093818 38.78831327 287.99337294 47.625 284 C59.80545671 276.64615284 64.04283383 262.93100206 68.96582031 250.36450195 C69.57279055 248.82768069 70.18970613 247.29475089 70.81640625 245.76586914 C71.73176074 243.53086263 72.61482181 241.28530414 73.4921875 239.03515625 C73.77432098 238.36299576 74.05645447 237.69083527 74.34713745 236.99830627 C76.44334126 231.45774203 75.74559 227.56660513 74 222 C73.73891449 221.14604141 73.47782898 220.29208282 73.20883179 219.4122467 C72.29248969 216.51276776 71.33156771 213.63122043 70.359375 210.75 C69.99587952 209.66138672 69.63238403 208.57277344 69.25787354 207.45117188 C68.09279284 203.96602217 66.92137341 200.483039 65.75 197 C65.01003198 194.7865869 64.27044631 192.57304594 63.53125 190.359375 C58.59006025 175.5880399 53.56072413 160.84748646 48.51922607 146.11017609 C43.6359162 131.83109345 38.79712951 117.53738557 33.984375 103.234375 C33.64709129 102.23209366 33.30980759 101.22981232 32.96230316 100.19715881 C30.20817741 92.01190569 27.45615956 83.82594421 24.70458984 75.63983154 C22.63435839 69.48089298 20.56338488 63.32220506 18.49110413 57.16395569 C17.82415345 55.18172414 17.15743296 53.19941513 16.49095154 51.21702576 C13.29390274 41.70946298 10.08768809 32.20597687 6.79101562 22.73242188 C6.54904072 22.03622868 6.30706581 21.34003548 6.05775833 20.62274551 C4.96336604 17.4770971 3.86304688 14.33384537 2.75335693 11.19354248 C2.38389954 10.1374176 2.01444214 9.08129272 1.63378906 7.99316406 C1.15573822 6.64064545 1.15573822 6.64064545 0.66802979 5.26080322 C0 3 0 3 0 0 Z " fill="#636365" transform="translate(1455,1446)"/>
<path d="M0 0 C14.63939387 10.09313336 25.09945914 23.67273624 28.79711914 41.32324219 C29.45372297 45.40494452 29.52799588 49.43510742 29.5 53.5625 C29.49436035 54.4390625 29.4887207 55.315625 29.48291016 56.21875 C29.14165796 74.51797652 21.13384281 89.19991389 8.1875 101.875 C-4.00950913 112.20683076 -20.06262811 117.57927975 -36.0078125 117.03515625 C-54.42743164 115.16240946 -70.88707777 107.83852613 -82.93359375 93.453125 C-93.52006856 78.22268723 -98.14007243 61.13610989 -95.51953125 42.6875 C-92.41592456 25.86795409 -83.42522606 11.82972351 -69.5625 1.9375 C-48.77199401 -11.86583241 -21.47209236 -12.77604386 0 0 Z " fill="#89939D" transform="translate(1189.8125,250.25)"/>
<path d="M0 0 C0 12.54 0 25.08 0 38 C-3.444375 38.2475 -6.88875 38.495 -10.4375 38.75 C-27.64613714 40.16552948 -44.64592795 42.35408472 -56.96875 55.56640625 C-71.42253612 72.88315385 -73.09772176 96.3617575 -73.20532227 117.9987793 C-73.21522186 119.24884262 -73.22512146 120.49890594 -73.23532104 121.78684998 C-73.26129581 125.17864705 -73.28324387 128.57042326 -73.30332303 131.96225715 C-73.3253647 135.52033864 -73.35266343 139.07837992 -73.37937927 142.63642883 C-73.42906269 149.35799097 -73.47409063 156.07957572 -73.51740164 162.80118161 C-73.56698373 170.46032601 -73.62182328 178.11943003 -73.67708123 185.77853525 C-73.79052688 201.51898744 -73.89675189 217.25947711 -74 233 C-86.21 233 -98.42 233 -111 233 C-111 157.43 -111 81.86 -111 4 C-99.45 4 -87.9 4 -76 4 C-75.67 15.55 -75.34 27.1 -75 39 C-72.03 34.05 -69.06 29.1 -66 24 C-54.40762565 9.91306408 -40.69868332 0.74532212 -22.4375 -1.6875 C-15.91193918 -2.26777608 -5.95140093 -2.97570047 0 0 Z " fill="#626264" transform="translate(438,1442)"/>
<path d="M0 0 C6.33864023 5.90466694 7.72383752 12.85658611 8.17471695 21.25403214 C8.24542274 25.0468134 8.24793621 28.83633014 8.22705078 32.62939453 C8.22648554 34.07912691 8.22680542 35.52885987 8.22793579 36.97859192 C8.22850591 40.88495108 8.21680725 44.79118558 8.20278788 48.69751596 C8.19022327 52.79075889 8.18910552 56.88400517 8.18673706 60.9772644 C8.18053905 68.71534757 8.16415111 76.45337373 8.14403808 84.19143188 C8.12162663 93.00648199 8.1106725 101.82153492 8.10064721 110.63660645 C8.07978327 128.75776987 8.04464017 146.87888034 8 165 C6.02 165 4.04 165 2 165 C1.67 158.73 1.34 152.46 1 146 C-0.32 147.98 -1.64 149.96 -3 152 C-11.85326235 161.53428253 -20.90263374 166.210494 -33.84765625 167.22265625 C-45.19464314 167.56650434 -56.3139044 165.73852153 -65 158 C-74.02520054 148.7764434 -74.51640017 137.52895175 -74.44604492 125.26855469 C-74.4375137 123.00363758 -74.46641602 120.74123334 -74.49804688 118.4765625 C-74.56590885 104.80762418 -71.01935059 95.41296552 -62 85 C-55.55175804 78.71968101 -47.88404596 74.44547759 -40.05566406 70.13330078 C-15.69637855 58.24690832 -15.69637855 58.24690832 -0.2734375 37.59765625 C2.00454179 27.74159919 1.79239925 17.9198864 -2.5625 8.6875 C-7.39781923 3.35625059 -14.37628369 1.30479952 -21.44433594 0.83886719 C-24.21301153 0.79309516 -26.98097853 0.76476811 -29.75 0.75 C-31.17699219 0.7190625 -31.17699219 0.7190625 -32.6328125 0.6875 C-41.43716761 0.63925696 -49.04006467 2.33493636 -56 8 C-63.32182319 16.36779793 -63.46896516 28.67291389 -63.6875 39.25 C-63.72166016 40.38824219 -63.75582031 41.52648438 -63.79101562 42.69921875 C-63.87239293 45.46604702 -63.94189107 48.2326023 -64 51 C-66.31 51 -68.62 51 -71 51 C-72.02759192 14.8709222 -72.02759192 14.8709222 -61.5078125 2.203125 C-47.49141632 -11.34382251 -15.46996555 -10.81796524 0 0 Z M1 50 C0.29488281 50.89074219 -0.41023437 51.78148437 -1.13671875 52.69921875 C-3.95666439 56.14066225 -7.08681822 58.42586545 -10.8125 60.8125 C-11.46484619 61.23917969 -12.11719238 61.66585938 -12.78930664 62.10546875 C-18.04722085 65.49742868 -23.4576644 68.57556483 -28.93115234 71.60253906 C-52.89501581 84.40910711 -52.89501581 84.40910711 -67.140625 106.578125 C-69.86105919 118.33591045 -70.17812988 135.98270239 -65 147 C-60.91811335 153.47918516 -55.48685709 157.44015256 -48.14160156 159.52832031 C-37.99576905 161.76290176 -25.04425808 161.207767 -16 156 C-9.75263912 151.83509274 -6.04128935 146.80227312 -3 140 C-2.70351563 139.34773438 -2.40703125 138.69546875 -2.1015625 138.0234375 C4.45902376 121.19975591 2.24620132 100.91433907 2.1373291 83.16473389 C2.11658026 79.41648639 2.10767439 75.66821068 2.09765625 71.91992188 C2.07644009 64.61320578 2.04247171 57.30662683 2 50 C1.67 50 1.34 50 1 50 Z " fill="#89939E" transform="translate(636,1921)"/>
<path d="M0 0 C7.80693084 7.0943935 10.57831436 16.62721862 11.96875 26.7890625 C12.12588525 30.20530566 12.13611217 33.619106 12.14575195 37.03857422 C12.15232315 38.05738174 12.15889435 39.07618927 12.16566467 40.12586975 C12.18533586 43.49016403 12.19704981 46.85441368 12.20703125 50.21875 C12.21110678 51.37376133 12.2151823 52.52877266 12.21938133 53.71878433 C12.24022102 59.83856271 12.25452889 65.95831885 12.26391602 72.078125 C12.27494428 78.36312129 12.30930916 84.64776003 12.34908772 90.93263054 C12.37538615 95.79548751 12.38361981 100.65826121 12.38719749 105.52118301 C12.39203343 107.83574956 12.4035606 110.15031316 12.42223549 112.46480942 C12.67549658 145.94813217 12.67549658 145.94813217 3.66015625 156.18359375 C-7.46013391 166.73888072 -19.656628 168.23465901 -34.59765625 168 C-46.82774903 167.57087394 -56.00076336 164.55152751 -64.84375 156.1015625 C-71.52649323 145.98197989 -72.18210872 135.01372075 -72.17651367 123.24902344 C-72.17987228 122.22349869 -72.1832309 121.19797394 -72.18669128 120.14137268 C-72.19614923 116.76871512 -72.19814185 113.39610748 -72.19921875 110.0234375 C-72.20243508 107.6646523 -72.20579944 105.3058673 -72.20930481 102.94708252 C-72.21528331 98.00784849 -72.21714604 93.06863192 -72.21655273 88.12939453 C-72.21645123 81.82399801 -72.23009762 75.51871438 -72.24732494 69.21334457 C-72.25848543 64.34207655 -72.26047069 59.47083546 -72.25994301 54.59955597 C-72.26111724 52.27612164 -72.26550753 49.95268648 -72.27327538 47.62926483 C-72.37725861 13.31305022 -72.37725861 13.31305022 -63.27734375 2.75390625 C-48.46958788 -11.33589782 -16.23650369 -11.94206612 0 0 Z M-58.03125 7.7890625 C-68.56535174 20.55452569 -66.19341114 39.15220653 -66.19921875 54.6796875 C-66.20243895 56.71311465 -66.20580358 58.74654158 -66.20930481 60.77996826 C-66.2152686 65.02958716 -66.21714755 69.27918581 -66.21655273 73.52880859 C-66.21645127 78.93590763 -66.23010012 84.3428749 -66.24732494 89.74994278 C-66.25852125 93.94706807 -66.26046961 98.14416227 -66.25994301 102.34130096 C-66.26111178 104.33290816 -66.26547046 106.32451646 -66.27327538 108.3161087 C-67.278328 132.61849535 -67.278328 132.61849535 -57.2421875 153.625 C-49.27166281 160.13479108 -40.61760851 161.28315785 -30.59375 161.1640625 C-29.62115234 161.17566406 -28.64855469 161.18726562 -27.64648438 161.19921875 C-17.40833125 161.15818407 -9.39198715 159.26128808 -1.94140625 152.0078125 C8.47828839 139.90477251 6.26937289 120.3079681 6.234375 105.3515625 C6.23572592 103.29760696 6.23766999 101.24365173 6.24017334 99.18969727 C6.24310452 94.90670699 6.23889204 90.62380074 6.22949219 86.34082031 C6.21809895 80.88773406 6.22466925 75.43484479 6.23663712 69.98176575 C6.24391021 65.74693351 6.24154292 61.51214695 6.23638153 57.27731323 C6.23506006 55.26813737 6.23663919 53.25895717 6.24134064 51.24978638 C6.57937742 28.23233662 6.57937742 28.23233662 -2.28125 7.5390625 C-9.60513928 0.21517322 -19.30667505 -1.1839482 -29.34375 -1.5234375 C-39.6980335 -1.27161659 -50.28062473 0.46719522 -58.03125 7.7890625 Z " fill="#88929D" transform="translate(1184.03125,1921.2109375)"/>
<path d="M0 0 C6.23859572 7.30806927 8.46010876 13.622709 8.3828125 23.24609375 C8.3799826 23.94646255 8.37715271 24.64683136 8.37423706 25.36842346 C8.36314885 27.5791317 8.33806703 29.78941671 8.3125 32 C8.30245546 33.50975972 8.2933322 35.01952588 8.28515625 36.52929688 C8.26324714 40.20716597 8.22879758 43.8847916 8.1875 47.5625 C6.2075 47.5625 4.2275 47.5625 2.1875 47.5625 C2.17291748 46.86801758 2.15833496 46.17353516 2.14331055 45.45800781 C2.06780164 42.24234235 1.97148946 39.02760173 1.875 35.8125 C1.85244141 34.72066406 1.82988281 33.62882812 1.80664062 32.50390625 C1.47228735 22.23014199 0.73083781 11.83892052 -6.78125 4.18359375 C-16.75977644 -3.78003793 -29.72576115 -3.15441992 -41.8125 -2.4375 C-50.4895345 -1.18273276 -57.38936021 3.0806948 -62.6875 10.0625 C-68.60860653 18.50939323 -67.62461423 29.74027954 -66.8125 39.5625 C-65.36196619 46.86728403 -61.77051782 52.16258224 -55.8125 56.5625 C-45.25597246 63.36230409 -33.78922097 68.56338619 -22.39355469 73.78173828 C-9.53285519 79.79324582 1.37696937 87.48546323 6.4609375 101.16796875 C8.52680485 107.97644556 8.40705726 114.6247832 8.4375 121.6875 C8.458125 122.86054687 8.47875 124.03359375 8.5 125.2421875 C8.55222474 136.99275473 7.10655602 145.81999953 -1.28125 154.3984375 C-11.70561102 163.31062269 -25.21884541 164.92913648 -38.4921875 164.421875 C-49.02778538 163.41431263 -59.8719781 160.18140122 -67.4375 152.3125 C-74.24139117 142.35692297 -74.32803763 131.96221051 -74.0625 120.375 C-74.04238817 118.8353099 -74.02414574 117.2955942 -74.0078125 115.75585938 C-73.96422461 112.02419792 -73.89546116 108.29351842 -73.8125 104.5625 C-71.8325 104.5625 -69.8525 104.5625 -67.8125 104.5625 C-67.79791748 105.35833496 -67.78333496 106.15416992 -67.76831055 106.97412109 C-67.69319504 110.62903466 -67.59674492 114.28309751 -67.5 117.9375 C-67.47744141 119.18917969 -67.45488281 120.44085937 -67.43164062 121.73046875 C-67.13579114 132.00451434 -66.2933448 141.11428228 -58.9765625 148.8046875 C-49.18740459 156.75616956 -36.91338922 157.60991187 -24.8125 156.5625 C-16.90016245 155.08316339 -9.37166939 152.59281215 -3.8125 146.5625 C0.8908292 138.71880592 0.79319954 130.45887803 0.6875 121.5625 C0.70296875 120.26054688 0.7184375 118.95859375 0.734375 117.6171875 C0.69636324 108.20927674 -0.49788984 99.15371589 -7.18579102 91.96630859 C-16.51547167 83.91503082 -28.56785225 79.19559397 -39.63330078 74.04467773 C-66.29746904 61.59256193 -66.29746904 61.59256193 -73.125 47.9375 C-76.77995019 35.31130845 -76.72364297 18.87990208 -70.55859375 7.18359375 C-64.60597735 -2.66174182 -56.70464346 -6.5400078 -45.8125 -9.4375 C-30.24102059 -12.83491369 -12.26857276 -10.63276306 0 0 Z " fill="#89939E" transform="translate(1303.8125,1924.4375)"/>
<path d="M0 0 C7.32058717 6.50862063 10.61613417 12.89388326 11.23339844 22.71264648 C11.32921914 26.8517652 11.26307242 30.98610314 11.1875 35.125 C11.17241768 36.57290266 11.15873558 38.02082062 11.14648438 39.46875 C11.11377849 42.97948994 11.06219511 46.48964399 11 50 C9.02 50 7.04 50 5 50 C4.98018066 49.28980713 4.96036133 48.57961426 4.93994141 47.84790039 C4.84384804 44.5857696 4.7345145 41.32420672 4.625 38.0625 C4.5940625 36.94552734 4.563125 35.82855469 4.53125 34.67773438 C4.13292558 23.35868205 3.04922907 13.89003883 -5.375 5.6875 C-16.40161331 -1.40103713 -30.84150006 -1.7082146 -43.4765625 0.6484375 C-51.09637096 3.15975465 -57.28394949 7.77480522 -61.4375 14.6875 C-65.75246798 23.83523212 -65.53908032 36.61093975 -63.19921875 46.32421875 C-62.03452905 48.87372852 -60.7805557 50.83942162 -59 53 C-58.20916016 53.97839844 -58.20916016 53.97839844 -57.40234375 54.9765625 C-48.18465825 64.47816029 -33.90022832 69.80399349 -22.01904297 75.2109375 C-8.36814869 81.42860741 3.77613739 88.92801655 9.2734375 103.5078125 C11.27949576 110.38880803 11.18334376 117.20949206 11.1875 124.3125 C11.19974609 125.40240234 11.21199219 126.49230469 11.22460938 127.61523438 C11.24470594 138.75542849 9.94699482 147.5099611 2.24609375 155.9140625 C-7.61737073 165.2793722 -20.92710514 167.28353092 -34.13574219 166.9453125 C-45.56484058 166.20266683 -55.6023457 162.97593804 -64 155 C-69.50971679 148.13383009 -71.32704862 140.84859723 -71.1953125 132.09765625 C-71.1924826 131.3750914 -71.18965271 130.65252655 -71.18673706 129.9080658 C-71.17564386 127.62603384 -71.15056088 125.34441103 -71.125 123.0625 C-71.11495611 121.50456301 -71.10583274 119.94661979 -71.09765625 118.38867188 C-71.07574033 114.59229301 -71.04128738 110.7962156 -71 107 C-69.02 107 -67.04 107 -65 107 C-64.9906543 107.82089111 -64.98130859 108.64178223 -64.97167969 109.48754883 C-64.92717987 112.58748492 -64.86535424 115.68649953 -64.79248047 118.78588867 C-64.75099079 120.76523235 -64.72877488 122.74495031 -64.70703125 124.72460938 C-64.47501031 133.88943653 -63.50969312 142.04895446 -58.09765625 149.68359375 C-48.7568302 157.73355709 -38.05095305 159.9176083 -25.94140625 159.38671875 C-17.0197719 158.51135522 -8.6874038 156.11826305 -2 150 C3.76584002 142.12297547 3.24260044 134.33666044 3.3125 124.9375 C3.34150391 123.66455078 3.37050781 122.39160156 3.40039062 121.08007812 C3.46226546 111.81313131 2.12046832 104.28079255 -2.625 96.25 C-12.42702355 86.96387243 -25.05453709 81.96109667 -37.13232422 76.33666992 C-64.0177609 63.77288889 -64.0177609 63.77288889 -70 51 C-71.94077234 44.79753171 -72.33595882 39.09963388 -72.3125 32.625 C-72.32861328 31.74328125 -72.34472656 30.8615625 -72.36132812 29.953125 C-72.36874549 19.83583869 -69.77994902 10.67729521 -63 3 C-46.95420036 -11.05371907 -17.29230364 -13.33502646 0 0 Z " fill="#89939E" transform="translate(1411,1922)"/>
<path d="M0 0 C0.9168457 0.00563965 1.83369141 0.0112793 2.77832031 0.01708984 C15.16680237 0.23839099 24.88825272 2.75782697 33.9375 11.5625 C43.10010617 26.4941545 41.94526488 44.42222281 41.625 61.3125 C39.315 61.3125 37.005 61.3125 34.625 61.3125 C34.61041748 60.62849121 34.59583496 59.94448242 34.58081055 59.23974609 C35.18340091 36.24042622 35.18340091 36.24042622 26.34375 15.92578125 C18.10745057 8.19489111 8.40136364 6.86178933 -2.61328125 7.12890625 C-12.73400232 7.80171232 -19.92877423 9.86627423 -27.1875 17.125 C-31.49617374 23.40335316 -33.4862552 30.31689108 -33.51544189 37.93312073 C-33.52115204 38.83138077 -33.52686218 39.72964081 -33.53274536 40.65512085 C-33.53442215 42.11469711 -33.53442215 42.11469711 -33.53613281 43.60375977 C-33.54109772 44.63860001 -33.54606262 45.67344025 -33.55117798 46.73963928 C-33.56577376 50.16106841 -33.57259855 53.58245111 -33.578125 57.00390625 C-33.58388008 59.38939922 -33.58963777 61.77489218 -33.59539795 64.16038513 C-33.60590164 69.16462418 -33.61174795 74.16884719 -33.61523438 79.1730957 C-33.62070727 85.56270093 -33.6447124 91.95209179 -33.67320633 98.34162998 C-33.69190132 103.27209577 -33.69704204 108.20251073 -33.69857025 113.13300896 C-33.70158356 115.48715317 -33.70956702 117.84129676 -33.72275543 120.19540596 C-34.55042823 141.18332023 -34.55042823 141.18332023 -26.046875 159.6953125 C-18.72204619 166.7805441 -9.82669732 167.6750139 -0.125 167.6875 C0.86113281 167.71199219 1.84726562 167.73648438 2.86328125 167.76171875 C11.05069137 167.79408005 17.43286297 165.82778222 24.4375 161.625 C33.61982203 151.91797385 33.87691533 139.31765127 34.25 126.625 C34.28867187 125.52994141 34.32734375 124.43488281 34.3671875 123.30664062 C34.46027252 120.642082 34.54609852 117.97750978 34.625 115.3125 C36.935 115.3125 39.245 115.3125 41.625 115.3125 C42.37354971 155.16413514 42.37354971 155.16413514 31.44140625 166.78125 C20.41735546 176.07464335 5.32669373 176.27108074 -8.375 175.3125 C-19.2138621 174.01619388 -27.66830595 171.11235013 -34.75 162.5625 C-41.34266158 152.99309649 -41.52570284 141.16853992 -41.52026367 129.95605469 C-41.52362228 128.95003708 -41.5269809 127.94401947 -41.53044128 126.90751648 C-41.53989738 123.5997899 -41.54189176 120.29211424 -41.54296875 116.984375 C-41.54618522 114.67043029 -41.54954958 112.35648579 -41.55305481 110.0425415 C-41.55903286 105.19746428 -41.56089609 100.35240487 -41.56030273 95.50732422 C-41.56020123 89.3229951 -41.57384737 83.13878109 -41.59107494 76.95447922 C-41.60223701 72.17585738 -41.60422064 67.39726299 -41.60369301 62.61862946 C-41.60486702 60.33985243 -41.60925599 58.06107456 -41.61702538 55.78231049 C-41.72839822 19.74091814 -41.72839822 19.74091814 -32.125 9.4375 C-23.04618356 1.24536203 -11.83308218 -0.07666751 0 0 Z " fill="#89929D" transform="translate(957.375,1913.6875)"/>
<path d="M0 0 C1.3763562 0.0163147 1.3763562 0.0163147 2.78051758 0.03295898 C14.21159563 0.30067756 24.15542376 2.11640964 32.625 10.375 C40.71171282 21.17965364 40.92579899 33.45444433 40.85205078 46.4753418 C40.85148528 47.85625704 40.85180593 49.23717288 40.85293579 50.61808777 C40.8535049 54.33224793 40.84182298 58.04627644 40.82778788 61.76040626 C40.81520607 65.65478313 40.81410419 69.54916368 40.81173706 73.44355774 C40.80554403 80.80265822 40.78916298 88.16169862 40.76903808 95.52077276 C40.74661094 103.90538221 40.73566858 112.28999468 40.72564721 120.67462671 C40.70479459 137.90811911 40.66966138 155.14155318 40.625 172.375 C38.645 172.375 36.665 172.375 34.625 172.375 C34.62003478 171.38303195 34.62003478 171.38303195 34.61496925 170.37102413 C34.53345319 154.21772217 34.44126942 138.06451896 34.33747292 121.91134548 C34.28752846 114.09952656 34.24108485 106.28771719 34.203125 98.47583008 C34.16999793 91.66037984 34.13005551 84.84500791 34.08220994 78.02964455 C34.05714884 74.42697269 34.0353097 70.82435139 34.02165604 67.22161674 C35.43061338 39.47784224 35.43061338 39.47784224 25.24609375 14.76171875 C19.56390869 9.51305189 12.13998619 7.83255451 4.625 7.375 C3.86445312 7.32214844 3.10390625 7.26929688 2.3203125 7.21484375 C-7.85901079 6.84084305 -18.54891012 9.03235162 -26.2109375 16.05859375 C-36.18975832 26.52161896 -36.51561021 38.67856035 -36.58032227 52.37866211 C-36.59517166 54.32603271 -36.59517166 54.32603271 -36.61032104 56.31274414 C-36.6372297 59.85558574 -36.65831475 63.39844047 -36.67832303 66.94132686 C-36.70026976 70.65024472 -36.72761574 74.35912276 -36.75437927 78.06800842 C-36.80418918 85.08365658 -36.84917116 92.09932698 -36.89240164 99.11501843 C-36.94187436 107.10538149 -36.99675511 115.09570459 -37.05208123 123.08602893 C-37.16572151 139.51564905 -37.27259927 155.9453059 -37.375 172.375 C-39.355 172.375 -41.335 172.375 -43.375 172.375 C-43.375 116.605 -43.375 60.835 -43.375 3.375 C-41.395 3.375 -39.415 3.375 -37.375 3.375 C-37.045 7.995 -36.715 12.615 -36.375 17.375 C-35.405625 16.17875 -34.43625 14.9825 -33.4375 13.75 C-24.35819733 3.44918473 -13.51876772 -0.21895274 0 0 Z " fill="#88929D" transform="translate(782.375,1913.625)"/>
<path d="M0 0 C0 1.98 0 3.96 0 6 C-0.81678223 5.97905273 -1.63356445 5.95810547 -2.47509766 5.93652344 C-6.19160555 5.8531487 -9.90791633 5.80127012 -13.625 5.75 C-14.91019531 5.71648437 -16.19539063 5.68296875 -17.51953125 5.6484375 C-24.92802229 5.33084879 -24.92802229 5.33084879 -31.75390625 7.71484375 C-34.05879197 10.05981443 -35.21145975 11.73249754 -36.3125 14.8125 C-36.61800781 15.62332031 -36.92351562 16.43414063 -37.23828125 17.26953125 C-39.39676705 25.00687266 -39.30693352 32.95761571 -39.5625 40.9375 C-39.706875 45.248125 -39.85125 49.55875 -40 54 C-26.8 54 -13.6 54 0 54 C0 55.98 0 57.96 0 60 C-13.2 60 -26.4 60 -40 60 C-40 111.48 -40 162.96 -40 216 C-41.98 216 -43.96 216 -46 216 C-46 164.52 -46 113.04 -46 60 C-49.63 60 -53.26 60 -57 60 C-57 58.02 -57 56.04 -57 54 C-53.37 54 -49.74 54 -46 54 C-46.02094727 53.06841064 -46.04189453 52.13682129 -46.06347656 51.17700195 C-46.13243862 47.65622688 -46.18217512 44.13618915 -46.21972656 40.61499023 C-46.23960437 39.10315488 -46.26671673 37.5913939 -46.30175781 36.07983398 C-46.57063051 24.16640087 -46.33726616 12.3950175 -38 3 C-28.45708771 -3.94773058 -10.88619321 -3.62873107 0 0 Z " fill="#89929E" transform="translate(1505,1870)"/>
<path d="M0 0 C1.65 0 3.3 0 5 0 C5 10.89 5 21.78 5 33 C18.2 33 31.4 33 45 33 C45 34.98 45 36.96 45 39 C31.8 39 18.6 39 5 39 C5.06299225 56.52506958 5.13827237 74.04994226 5.23571491 91.57484818 C5.28057528 99.7129715 5.32001213 107.85105201 5.34643555 115.98925781 C5.36949502 123.08707229 5.40298089 130.18475018 5.44870156 137.28245616 C5.47252726 141.03652226 5.49132546 144.79045398 5.49761391 148.54459381 C5.50371348 152.08725675 5.52388587 155.62957634 5.55427551 159.17211151 C5.56708864 161.07344044 5.56549921 162.9748499 5.5632782 164.8762207 C5.66860241 174.62746616 6.34586616 185.33766406 13 193 C16.46149407 195.28442901 19.43187377 195.23243751 23.515625 195.1953125 C24.76601562 195.18886719 26.01640625 195.18242187 27.3046875 195.17578125 C28.60664062 195.15902344 29.90859375 195.14226563 31.25 195.125 C32.56742188 195.11597656 33.88484375 195.10695313 35.2421875 195.09765625 C38.49497462 195.07408533 41.74739589 195.04118022 45 195 C45 196.98 45 198.96 45 201 C39.67536777 202.57334803 34.1929115 202.22481801 28.6875 202.25 C27.57181641 202.270625 26.45613281 202.29125 25.30664062 202.3125 C17.59350557 202.34907681 12.49305172 201.76194787 6.3125 196.875 C0.85594022 190.09116893 -1.12791842 182.65238857 -1.12025452 174.04582214 C-1.12231651 172.25591858 -1.12231651 172.25591858 -1.12442017 170.42985535 C-1.12082489 169.12937759 -1.11722961 167.82889984 -1.11352539 166.48901367 C-1.11324317 165.09913129 -1.11340193 163.70924875 -1.1139679 162.31936646 C-1.11425452 158.55324062 -1.10837959 154.78714671 -1.10139394 151.02102828 C-1.09513794 147.08256807 -1.09455482 143.14410711 -1.09336853 139.2056427 C-1.09026184 131.75074105 -1.08205737 124.29585408 -1.07201904 116.84095889 C-1.06083735 108.35249378 -1.05534227 99.86402795 -1.05032361 91.3755573 C-1.03987422 73.91702947 -1.02208589 56.45851685 -1 39 C-5.29 39 -9.58 39 -14 39 C-14 37.02 -14 35.04 -14 33 C-9.71 33 -5.42 33 -1 33 C-1.01740234 31.06060547 -1.01740234 31.06060547 -1.03515625 29.08203125 C-1.09525302 19.32757399 -0.99260606 9.71335927 0 0 Z " fill="#89939E" transform="translate(1572,1884)"/>
<path d="M0 0 C27.39 0 54.78 0 83 0 C83 1.98 83 3.96 83 6 C70.13 6 57.26 6 44 6 C44 70.68 44 135.36 44 202 C42.02 202 40.04 202 38 202 C38 137.32 38 72.64 38 6 C25.46 6 12.92 6 0 6 C0 4.02 0 2.04 0 0 Z " fill="#88929D" transform="translate(383,1884)"/>
<path d="M0 0 C0 1.98 0 3.96 0 6 C-1.64935547 5.96519531 -1.64935547 5.96519531 -3.33203125 5.9296875 C-16.63213311 5.73075113 -29.46695001 5.68589206 -39.75 15.25 C-45.63529259 21.4980846 -48.10496674 28.30612672 -48.15821838 36.79595947 C-48.17290161 38.57117981 -48.17290161 38.57117981 -48.18788147 40.38226318 C-48.19363693 41.67698547 -48.1993924 42.97170776 -48.20532227 44.30566406 C-48.21490452 45.68554984 -48.22491481 47.06543269 -48.23532104 48.4453125 C-48.26233856 52.18873924 -48.28336517 55.93217855 -48.30332303 59.67564869 C-48.32520205 63.58878172 -48.35258136 67.50187615 -48.37937927 71.41497803 C-48.42928025 78.82384405 -48.47422871 86.23273152 -48.51740164 93.64163947 C-48.56679619 102.07690554 -48.62170609 110.51213287 -48.67708123 118.94736147 C-48.79086145 136.29820517 -48.89770911 153.64908484 -49 171 C-51.31 171 -53.62 171 -56 171 C-56 115.23 -56 59.46 -56 2 C-54.02 2 -52.04 2 -50 2 C-50 6.29 -50 10.58 -50 15 C-49.401875 14.34 -48.80375 13.68 -48.1875 13 C-37.1303895 2.09862345 -15.6478348 -7.8239174 0 0 Z " fill="#89939E" transform="translate(544,1915)"/>
<path d="M0 0 C0 1.98 0 3.96 0 6 C-1.14855469 5.96519531 -2.29710937 5.93039062 -3.48046875 5.89453125 C-16.47344329 5.61662167 -29.9146782 5.58567743 -40 15 C-46.46390612 22.89878184 -49.092321 30.69876002 -49.15821838 40.88461304 C-49.17290161 42.61347244 -49.17290161 42.61347244 -49.18788147 44.3772583 C-49.19363693 45.62738708 -49.1993924 46.87751587 -49.20532227 48.16552734 C-49.21491102 49.50629979 -49.22492167 50.84706928 -49.23532104 52.18783569 C-49.26226822 55.81544487 -49.28333267 59.44306691 -49.30332303 63.0707202 C-49.32524571 66.86639447 -49.35260356 70.66202953 -49.37937927 74.45767212 C-49.42922144 81.63980897 -49.47419158 88.82196769 -49.51740164 96.00414717 C-49.56684662 104.18311667 -49.62173774 112.36204681 -49.67708123 120.54097819 C-49.79077109 137.3606158 -49.89763824 154.18028955 -50 171 C-51.98 171 -53.96 171 -56 171 C-56 115.23 -56 59.46 -56 2 C-54.02 2 -52.04 2 -50 2 C-49.67 6.29 -49.34 10.58 -49 15 C-48.01 13.783125 -47.02 12.56625 -46 11.3125 C-36.34368824 0.38155509 -13.92118412 -6.96059206 0 0 Z " fill="#89929E" transform="translate(1093,1915)"/>
<path d="M0 0 C2.31 0 4.62 0 7 0 C7 55.77 7 111.54 7 169 C4.69 169 2.38 169 0 169 C0 113.23 0 57.46 0 0 Z " fill="#87929C" transform="translate(687,1917)"/>
<path d="M0 0 C1.98 0 3.96 0 6 0 C6 55.77 6 111.54 6 169 C4.02 169 2.04 169 0 169 C0 113.23 0 57.46 0 0 Z " fill="#88929D" transform="translate(1519,1917)"/>
<path d="M0 0 C1.7325 0.1546875 1.7325 0.1546875 3.5 0.3125 C5.5 3.3125 5.5 3.3125 5.1875 6.4375 C4.5 9.3125 4.5 9.3125 3.5 10.3125 C0.0625 10.5 0.0625 10.5 -3.5 10.3125 C-5.5 8.3125 -5.5 8.3125 -5.75 5.3125 C-5.37833659 0.85253908 -4.40663794 0.39344982 0 0 Z " fill="#8B95A0" transform="translate(690.5,1882.6875)"/>
<path d="M0 0 C3.4375 0.1875 3.4375 0.1875 4.4375 1.1875 C4.5703125 3 4.5703125 3 4.5625 5.1875 C4.56507812 5.909375 4.56765625 6.63125 4.5703125 7.375 C4.4375 9.1875 4.4375 9.1875 3.4375 10.1875 C0 10.375 0 10.375 -3.5625 10.1875 C-5.5625 8.1875 -5.5625 8.1875 -5.8125 5.1875 C-5.43683682 0.67954181 -4.46883674 0.23520193 0 0 Z " fill="#89939D" transform="translate(1522.5625,1882.8125)"/>
</svg>
